<svg id="Capa_1" data-name="Capa 1" xmlns="http://www.w3.org/2000/svg" viewBox="0 0 698.56 1226.97"><defs><style>.cls-1,.cls-6,.cls-8{fill:#0dabbc;}.cls-1,.cls-3,.cls-4,.cls-5{fill-rule:evenodd;}.cls-2,.cls-3{fill:#000100;}.cls-4{fill:#eb5d50;}.cls-5{fill:#f7a535;}.cls-7{fill:#ef7c79;}.cls-8{opacity:0.62;}</style></defs><polygon class="cls-1" points="64.38 740.75 64.38 673.15 68.08 668.52 72.26 663.43 75.04 660.65 77.82 657.41 81.53 654.17 84.77 650.93 93.12 644.45 97.29 641.21 101.92 637.97 106.56 635.19 111.2 632.88 121.86 627.78 134.37 622.69 148.28 616.21 162.65 609.26 171.92 604.17 180.73 598.62 188.61 592.6 196.02 586.12 202.98 579.63 209 573.15 214.57 566.67 220.13 559.73 224.76 552.78 228.94 545.84 233.11 538.89 236.35 532.41 239.6 525.93 242.38 519.45 247.01 506.95 248.4 503.71 249.8 500.47 253.5 493.52 257.68 486.58 261.85 480.1 269.26 469.91 272.05 465.74 304.49 497.69 262.77 543.06 259.07 547.23 255.82 551.86 252.58 556.49 249.8 561.58 244.7 572.23 240.06 582.87 232.18 601.39 228.94 608.8 227.54 611.58 226.15 613.89 220.13 621.3 210.86 631.02 200.2 642.13 189.07 652.78 183.97 657.88 178.41 662.97 173.31 667.13 170.53 669.45 167.28 671.76 164.5 673.62 161.72 675.47 155.7 678.71 149.21 681.49 142.72 684.26 136.69 686.12 131.13 688.43 126.49 690.75 122.32 692.6 113.98 698.15 104.24 704.63 100.07 707.88 95.9 710.65 88.02 717.13 81.06 723.15 75.04 728.71 67.16 737.04 64.38 740.75"/><rect class="cls-2" x="62.06" y="673.15" width="4.17" height="67.13"/><polygon class="cls-3" points="62.52 671.76 66.23 667.13 76.43 656.02 91.26 643.06 100.53 636.12 110.27 631.02 112.12 634.73 102.39 639.82 94.04 646.3 79.21 659.26 69.01 670.38 65.3 675 62.52 671.76"/><polygon class="cls-3" points="62.06 673.15 62.06 672.23 62.52 671.76 65.3 675 66.23 673.15 62.06 673.15"/><polygon class="cls-3" points="110.27 631.02 133.44 620.84 161.72 607.41 163.57 611.12 135.3 624.54 112.12 634.73 110.27 631.02"/><path class="cls-3" d="M301.58,758l1.86,3.71Z" transform="translate(-191.31 -126.99)"/><polygon class="cls-3" points="161.72 607.41 170.99 602.32 179.34 597.23 187.22 591.21 194.63 584.73 207.61 571.76 218.27 558.34 227.08 544.45 234.5 531.49 240.53 518.52 245.16 506.02 248.87 507.88 244.23 520.38 238.21 533.34 230.33 547.23 221.52 561.12 210.39 575 197.41 587.97 190 594.45 182.12 600.47 172.85 606.02 163.57 611.12 161.72 607.41"/><path class="cls-3" d="M354.89,738.11,353,734.4Z" transform="translate(-191.31 -126.99)"/><polygon class="cls-3" points="245.16 506.02 247.94 499.54 251.65 492.13 259.99 478.71 270.19 464.35 273.44 467.13 263.24 481.48 254.89 494.91 251.65 501.39 248.87 507.88 245.16 506.02"/><path class="cls-3" d="M436.48,633l3.7,1.86Z" transform="translate(-191.31 -126.99)"/><polygon class="cls-3" points="273.44 464.35 270.65 467.6 303.1 499.54 305.88 496.3 273.44 464.35"/><polygon class="cls-3" points="270.19 464.35 271.58 462.5 273.44 464.35 270.65 467.6 273.44 467.13 270.19 464.35"/><polygon class="cls-3" points="305.88 499.08 264.17 544.45 260.92 541.67 302.64 496.3 305.88 499.08"/><polygon class="cls-3" points="305.88 496.3 307.27 497.69 305.88 499.08 302.64 496.3 303.1 499.54 305.88 496.3"/><polygon class="cls-3" points="264.17 544.45 257.21 553.24 251.65 562.5 241.91 583.34 234.04 602.32 230.79 609.73 228.01 614.82 224.3 612.97 227.08 607.88 230.33 600.47 238.21 581.49 247.94 560.65 253.97 550.47 260.92 541.67 264.17 544.45"/><path class="cls-3" d="M452.23,668.66l3.25,2.78Z" transform="translate(-191.31 -126.99)"/><polygon class="cls-3" points="227.54 615.28 212.25 632.41 190.46 654.17 187.22 651.39 209 629.63 224.3 612.5 227.54 615.28"/><polygon class="cls-3" points="228.01 614.82 227.54 615.28 224.3 612.5 224.3 612.97 228.01 614.82"/><polygon class="cls-3" points="190.46 654.63 179.8 664.82 168.68 673.15 156.62 680.56 150.13 683.34 143.64 686.12 141.79 682.41 148.28 679.63 154.31 677.32 165.89 669.91 177.02 661.58 187.68 651.39 190.46 654.63"/><polygon class="cls-3" points="190.46 654.17 190.46 654.63 187.68 651.39 187.22 651.39 190.46 654.17"/><polygon class="cls-3" points="143.64 686.12 132.06 690.28 123.71 694.45 105.63 706.49 102.85 703.25 120.93 691.21 130.2 686.58 141.79 682.41 143.64 686.12"/><path class="cls-3" d="M335,813.11l-1.86-3.71Z" transform="translate(-191.31 -126.99)"/><polygon class="cls-3" points="105.63 706.49 89.41 718.99 82.45 725 76.43 730.56 65.3 741.67 62.06 738.89 73.65 727.32 79.67 721.76 86.63 715.75 102.85 703.25 105.63 706.49"/><path class="cls-3" d="M294.17,830.24l2.78,3.24Z" transform="translate(-191.31 -126.99)"/><polygon class="cls-1" points="610.44 740.75 610.44 673.15 609.51 671.76 606.73 668.06 602.55 662.5 600.24 659.26 596.99 656.02 593.75 652.32 590.5 649.08 586.33 645.84 582.16 642.6 577.99 639.36 573.35 636.58 571.03 635.65 568.25 634.73 565.93 633.34 563.15 632.88 552.03 629.63 543.22 626.39 535.8 623.62 529.31 620.84 522.82 617.6 516.34 614.36 500.11 605.1 493.62 600.47 490.38 598.15 487.13 595.37 484.35 592.6 481.57 589.82 476.01 583.8 471.37 577.78 466.74 570.84 462.56 564.36 458.39 557.41 450.98 543.06 444.49 529.63 437.53 516.67 434.29 511.11 431.04 505.56 422.7 493.98 413.43 480.56 402.3 465.74 369.85 498.61 372.17 499.54 378.2 503.25 382.37 506.02 387.47 509.73 393.03 514.36 398.59 519.91 405.08 526.86 411.57 534.26 414.82 538.89 418.06 543.52 421.31 548.15 424.55 553.24 431.04 564.82 434.29 571.3 437.53 577.78 440.78 584.73 443.56 591.67 446.8 599.54 449.58 607.41 450.98 611.12 454.22 615.75 457.93 621.3 463.03 627.78 468.59 634.26 474.15 641.21 479.71 647.23 485.28 652.78 488.06 655.56 490.38 657.88 495.94 662.04 501.5 666.21 507.06 669.45 509.85 671.3 512.63 672.69 518.65 675.47 524.68 678.71 531.17 681.49 537.19 684.26 542.76 686.58 547.39 689.36 551.57 692.13 560.37 697.69 570.11 704.63 574.74 707.88 578.91 710.65 586.79 717.13 593.28 723.15 599.31 728.71 607.65 737.04 610.44 740.75"/><rect class="cls-2" x="608.58" y="673.15" width="4.17" height="67.13"/><polygon class="cls-3" points="608.58 674.54 604.87 669.45 595.6 657.41 589.11 650.47 580.77 643.99 572.42 638.43 562.23 634.73 564.08 631.02 574.28 634.73 583.55 640.75 591.89 647.69 598.38 654.63 608.12 666.67 611.83 672.23 608.58 674.54"/><polygon class="cls-3" points="612.75 673.15 612.75 673.62 611.83 672.23 608.58 674.54 608.58 673.15 612.75 673.15"/><polygon class="cls-3" points="562.23 634.73 542.29 628.24 527.92 622.69 514.94 616.21 498.72 606.49 501.04 603.25 517.26 612.97 529.78 618.99 543.68 624.54 563.62 631.02 562.23 634.73"/><polygon class="cls-3" points="564.08 631.02 563.62 631.02 562.23 634.73 564.08 631.02"/><polygon class="cls-3" points="498.72 606.49 485.74 597.23 480.18 591.67 474.15 585.19 464.88 572.23 456.54 558.8 442.17 530.56 435.68 518.06 429.19 506.95 432.43 504.63 438.92 515.74 445.88 528.71 459.78 556.49 468.13 569.91 477.4 582.41 482.96 588.43 488.52 593.99 501.5 603.25 498.72 606.49"/><polygon class="cls-3" points="498.72 606.49 501.5 603.25 501.04 603.25 498.72 606.49"/><polygon class="cls-3" points="429.19 506.95 400.45 467.13 403.69 464.35 432.43 504.17 429.19 506.95"/><polygon class="cls-3" points="432.43 504.63 432.43 504.17 429.19 506.95 432.43 504.63"/><polygon class="cls-3" points="403.69 467.6 400.91 464.35 368.46 497.23 371.24 500.47 403.69 467.6"/><polygon class="cls-3" points="403.69 464.35 402.3 462.5 400.91 464.35 403.69 467.6 400.45 467.13 403.69 464.35"/><polygon class="cls-3" points="370.78 496.76 379.13 501.39 388.86 508.34 393.96 512.97 399.99 518.52 406.01 525.47 412.5 532.88 426.41 552.32 432.9 563.89 439.39 576.86 445.41 590.75 450.98 606.49 447.27 608.34 441.7 592.6 435.68 578.71 429.19 565.74 422.7 554.17 409.26 535.65 402.77 528.24 397.2 521.76 391.18 516.21 386.08 511.58 377.27 505.1 368.93 500.47 370.78 496.76"/><polygon class="cls-3" points="368.46 497.23 366.61 499.08 368.93 500.47 370.78 496.76 371.24 500.47 368.46 497.23"/><polygon class="cls-3" points="450.98 606.49 455.61 614.36 464.42 626.39 475.54 639.36 486.67 651.39 483.42 654.17 472.3 642.13 461.17 629.17 452.37 617.13 447.27 608.34 450.98 606.49"/><path class="cls-3" d="M638.58,735.33l3.71-1.85Z" transform="translate(-191.31 -126.99)"/><polygon class="cls-3" points="486.67 651.39 497.33 660.65 507.99 667.6 519.58 673.62 532.1 679.17 530.24 682.88 517.73 677.32 506.14 671.3 494.55 663.89 483.89 654.63 486.67 651.39"/><polygon class="cls-3" points="483.42 654.17 483.89 654.63 486.67 651.39 483.42 654.17"/><polygon class="cls-3" points="532.1 679.17 543.68 684.73 552.49 690.28 571.5 703.25 568.72 706.49 550.64 693.99 541.83 688.43 530.24 682.88 532.1 679.17"/><path class="cls-3" d="M723.41,806.16l-1.85,3.71Z" transform="translate(-191.31 -126.99)"/><polygon class="cls-3" points="571.5 703.25 588.18 715.75 594.67 721.76 600.7 727.32 611.83 738.89 608.58 741.67 597.92 730.56 591.89 725 585.4 718.99 568.72 706.49 571.5 703.25"/><path class="cls-3" d="M762.81,830.24,760,833.48Z" transform="translate(-191.31 -126.99)"/><polygon class="cls-4" points="610.44 610.19 610.44 543.06 607.65 538.43 603.95 533.8 599.31 528.24 593.28 522.69 589.58 519.45 585.87 516.67 582.16 513.89 577.52 511.11 572.89 508.8 568.25 506.95 558.98 503.71 550.64 500.47 542.76 497.23 535.34 493.98 527.92 490.28 519.58 486.11 501.04 475.93 495.94 473.15 491.3 469.45 486.67 465.28 482.5 460.65 478.32 456.02 474.15 451.39 470.91 446.3 467.2 441.67 461.64 432.41 459.32 428.24 457.46 425 453.76 418.06 431.04 439.35 438.92 455.56 445.41 469.45 451.9 481.95 454.68 487.5 457.93 493.06 464.88 504.17 469.05 509.73 473.23 515.28 477.86 520.84 482.96 525.93 485.74 528.24 488.52 530.56 490.84 532.88 493.62 534.73 499.18 537.97 504.75 541.21 510.31 543.52 516.34 546.3 529.31 551.39 535.34 554.17 540.9 556.49 550.64 562.04 555.27 564.82 559.91 567.6 570.11 574.54 574.74 577.32 578.91 580.56 586.79 586.58 593.28 592.6 599.31 598.15 607.65 606.95 610.44 610.19"/><rect class="cls-2" x="608.58" y="542.6" width="4.17" height="67.59"/><polygon class="cls-3" points="608.58 543.99 605.8 539.82 597.92 529.63 591.89 523.61 584.48 518.52 576.13 512.97 567.33 508.8 569.18 505.1 578.45 509.73 587.26 515.28 594.67 520.84 600.7 526.86 609.04 537.04 611.83 541.67 608.58 543.99"/><polygon class="cls-3" points="612.75 542.6 612.75 543.06 611.83 541.67 608.58 543.99 608.58 542.6 612.75 542.6"/><polygon class="cls-3" points="567.33 508.8 549.25 502.32 534.41 495.84 499.65 477.78 501.97 474.54 536.27 492.13 551.1 498.61 569.18 505.1 567.33 508.8"/><path class="cls-3" d="M760.49,632.09l-1.85,3.7Z" transform="translate(-191.31 -126.99)"/><polygon class="cls-3" points="499.65 477.78 489.91 470.84 481.11 462.5 472.3 452.32 465.35 442.6 455.61 426.39 451.9 418.99 455.15 416.67 458.85 424.08 468.59 440.28 475.54 449.54 483.89 459.26 492.69 468.06 502.43 474.54 499.65 477.78"/><polygon class="cls-3" points="499.65 477.78 502.43 474.54 501.97 474.54 499.65 477.78"/><polygon class="cls-3" points="455.15 419.45 452.37 416.21 429.65 437.97 432.43 441.21 455.15 419.45"/><polygon class="cls-3" points="455.15 416.67 454.22 414.36 452.37 416.21 455.15 419.45 451.9 418.99 455.15 416.67"/><polygon class="cls-3" points="432.9 438.43 453.76 481.02 450.05 482.87 429.19 440.28 432.9 438.43"/><polygon class="cls-3" points="429.65 437.97 428.72 438.89 429.19 440.28 432.9 438.43 432.43 441.21 429.65 437.97"/><polygon class="cls-3" points="453.76 481.02 459.32 491.67 466.27 502.78 474.62 513.89 484.35 524.54 481.11 527.32 471.37 516.67 463.03 505.56 455.61 493.52 450.05 482.87 453.76 481.02"/><path class="cls-3" d="M641.36,609.87l3.71-1.86Z" transform="translate(-191.31 -126.99)"/><polygon class="cls-3" points="484.35 524.54 489.45 529.17 494.55 532.88 505.67 538.89 517.26 543.99 529.78 549.54 527.92 553.24 515.41 547.69 503.82 542.6 492.69 536.58 486.67 532.41 481.57 527.78 484.35 524.54"/><polygon class="cls-3" points="481.11 527.32 481.57 527.78 484.35 524.54 481.11 527.32"/><polygon class="cls-3" points="529.78 549.54 541.83 554.63 551.57 560.19 571.03 572.69 569.18 576.39 549.71 563.89 539.98 558.34 527.92 553.24 529.78 549.54"/><path class="cls-3" d="M721.09,676.53l-1.85,3.71Z" transform="translate(-191.31 -126.99)"/><polygon class="cls-3" points="571.5 573.15 588.18 585.19 594.67 591.21 600.7 596.76 611.83 608.8 608.58 611.58 597.92 600 591.89 594.45 585.4 588.43 568.72 576.39 571.5 573.15"/><polygon class="cls-3" points="571.03 572.69 571.5 573.15 568.72 576.39 569.18 576.39 571.03 572.69"/><polygon class="cls-3" points="608.58 611.58 612.75 616.21 612.75 610.19 608.58 610.19 611.83 608.8 608.58 611.58"/><polygon class="cls-4" points="64.38 610.19 64.38 543.06 68.08 539.36 77.36 530.1 83.85 524.54 90.8 518.52 98.68 512.5 106.56 506.95 109.8 505.1 113.05 503.25 120 500.47 127.42 498.15 134.84 495.84 143.18 493.06 147.35 491.67 151.99 490.28 156.16 488.43 160.79 486.58 165.43 484.26 170.06 481.95 176.56 477.78 179.8 475.46 183.04 473.15 188.61 468.52 191.39 465.74 193.71 463.43 198.81 457.87 202.98 452.78 207.15 447.69 210.39 442.13 213.64 437.5 215.96 432.87 220.13 425 223.37 418.06 247.48 441.21 239.13 457.87 224.76 484.73 221.98 489.82 218.74 494.91 215.03 500 210.86 505.1 206.69 510.19 202.05 515.74 191.85 525.93 186.75 531.02 181.19 535.65 175.63 539.82 170.06 543.52 164.04 546.76 158.01 550 151.52 552.32 144.11 554.63 138.08 556.49 132.52 558.34 129.74 559.26 127.42 560.19 123.25 562.5 119.08 564.82 114.44 567.6 104.7 574.54 100.07 577.32 95.9 580.56 88.48 586.58 81.53 592.6 75.5 598.15 67.62 606.95 64.38 610.19"/><rect class="cls-2" x="62.52" y="542.6" width="4.17" height="67.59"/><polygon class="cls-3" points="62.99 541.21 75.97 528.71 89.41 517.13 105.17 505.56 107.95 508.8 92.19 520.38 78.75 531.95 65.77 544.45 62.99 541.21"/><polygon class="cls-3" points="62.52 542.6 62.52 541.67 62.99 541.21 65.77 544.45 66.69 542.6 62.52 542.6"/><polygon class="cls-3" points="105.63 505.1 112.12 501.39 119.08 498.61 134.37 493.98 151.06 488.43 159.87 484.73 169.14 480.1 170.99 483.8 161.72 488.43 152.91 492.13 135.3 498.15 120.93 502.32 113.98 505.1 107.49 508.8 105.63 505.1"/><polygon class="cls-3" points="105.17 505.56 105.63 505.1 107.49 508.8 107.95 508.8 105.17 505.56"/><polygon class="cls-3" points="169.14 480.1 175.16 476.39 181.19 471.76 192.32 462.04 201.12 451.39 208.54 440.74 218.27 424.08 221.52 417.13 225.23 418.99 221.52 426.39 211.78 443.52 204.37 454.17 195.1 465.28 183.97 475 177.95 479.63 170.99 483.8 169.14 480.1"/><path class="cls-3" d="M362.31,610.79l-1.86-3.7Z" transform="translate(-191.31 -126.99)"/><polygon class="cls-3" points="224.76 416.67 221.98 419.91 246.09 443.06 248.87 439.82 224.76 416.67"/><polygon class="cls-3" points="221.52 417.13 222.45 414.82 224.76 416.67 221.98 419.91 225.23 418.99 221.52 417.13"/><polygon class="cls-3" points="249.33 442.13 226.62 485.19 222.91 483.34 245.62 440.28 249.33 442.13"/><polygon class="cls-3" points="248.87 439.82 249.8 440.74 249.33 442.13 245.62 440.28 246.09 443.06 248.87 439.82"/><polygon class="cls-3" points="226.62 485.19 220.13 496.3 212.25 506.48 203.44 517.13 193.24 527.78 190.46 524.54 200.2 514.36 209 503.71 216.88 493.52 222.91 483.34 226.62 485.19"/><path class="cls-3" d="M417.93,612.18l-3.71-1.85Z" transform="translate(-191.31 -126.99)"/><polygon class="cls-3" points="193.24 527.78 182.58 537.5 171.46 545.37 158.94 551.39 145.03 556.49 143.18 552.78 157.09 547.69 168.68 542.13 179.8 534.26 190.46 524.54 193.24 527.78"/><path class="cls-3" d="M384.56,654.77l-2.78-3.24Z" transform="translate(-191.31 -126.99)"/><polygon class="cls-3" points="145.03 556.49 133.44 560.19 124.64 564.36 106.09 576.39 103.31 573.15 121.86 561.12 131.59 556.49 143.18 552.78 145.03 556.49"/><path class="cls-3" d="M336.35,683.48l-1.86-3.71Z" transform="translate(-191.31 -126.99)"/><polygon class="cls-3" points="106.09 576.39 89.87 588.43 82.92 594.45 76.89 600 65.77 611.58 62.52 608.8 74.11 596.76 80.14 591.21 87.09 585.19 103.31 573.15 106.09 576.39"/><path class="cls-3" d="M294.63,700.14l2.78,3.25Z" transform="translate(-191.31 -126.99)"/><polygon class="cls-3" points="65.77 611.58 62.52 615.28 62.52 610.19 66.69 610.19 62.52 608.8 65.77 611.58"/><polygon class="cls-4" points="337.87 274.08 304.49 305.1 336.48 338.43 374.03 306.95 337.87 274.08"/><polygon class="cls-1" points="450.98 354.17 478.32 325.46 478.32 32.41 192.78 32.41 192.78 325.46 227.54 359.73 249.33 312.5 225.23 289.35 225.23 68.52 450.05 68.52 450.05 295.37 430.12 314.35 432.9 318.98 435.68 324.54 439.39 332.41 441.24 336.58 443.1 340.74 447.27 347.69 450.98 354.17"/><polygon class="cls-1" points="335.09 466.21 369.85 433.34 336.48 403.71 303.1 435.65 335.09 466.21"/><polygon class="cls-4" points="304.96 367.13 273.44 335.19 267.41 341.67 262.31 347.23 259.99 350.47 258.14 353.24 253.5 360.19 248.4 367.6 241.91 376.39 270.65 403.71 289.66 383.8 304.96 367.13"/><polygon class="cls-4" points="402.3 400.46 427.8 376.39 426.87 375 425.02 370.37 423.63 367.6 421.77 364.35 419.45 361.11 417.14 357.41 414.82 354.17 412.96 350.47 409.26 343.98 406.94 339.35 406.48 337.5 371.24 371.3 376.81 376.85 381.91 381.95 386.54 386.11 391.18 389.82 396.28 394.91 402.3 400.46"/><polygon class="cls-4" points="400.91 275.46 367.07 244.91 383.76 227.78 383.76 130.56 288.73 130.56 288.73 225.46 305.88 242.59 272.97 275.46 257.68 260.19 257.68 98.61 415.75 98.61 415.75 260.65 400.91 275.46"/><polygon class="cls-4" points="334.63 214.35 351.31 193.52 351.31 162.96 321.18 162.96 321.18 195.37 334.63 214.35"/><polygon class="cls-5" points="304.49 305.1 383.76 227.78 383.76 130.56 288.73 130.56 288.73 225.93 293.37 229.63 298.93 235.19 305.88 242.13 334.63 214.35 321.18 195.37 321.18 162.96 351.31 162.96 351.31 193.52 349 196.76 342.5 204.63 338.33 209.72 333.7 215.28 328.6 220.84 323.04 225.93 316.55 231.48 309.13 238.89 292.44 255.56 273.44 275.46 304.49 305.1"/><polygon class="cls-3" points="303.1 303.71 382.37 226.39 385.15 229.63 305.88 306.95 303.1 303.71"/><rect class="cls-2" x="381.91" y="130.56" width="4.17" height="97.22"/><polygon class="cls-3" points="385.15 229.63 386.08 229.17 386.08 227.78 381.91 227.78 382.37 226.39 385.15 229.63"/><rect class="cls-2" x="288.73" y="128.7" width="95.03" height="4.17"/><polygon class="cls-3" points="386.08 130.56 386.08 128.7 383.76 128.7 383.76 132.87 381.91 130.56 386.08 130.56"/><rect class="cls-2" x="286.88" y="130.56" width="4.17" height="94.91"/><polygon class="cls-3" points="288.73 128.7 286.88 128.7 286.88 130.56 291.05 130.56 288.73 132.87 288.73 128.7"/><polygon class="cls-3" points="290.13 224.07 294.76 228.24 307.27 240.74 304.49 243.98 291.98 231.48 287.34 227.32 290.13 224.07"/><polygon class="cls-3" points="286.88 225.46 286.88 227.32 287.34 227.32 290.13 224.07 291.05 225.46 286.88 225.46"/><polygon class="cls-3" points="304.49 240.74 307.27 243.98 336.01 216.21 333.23 212.96 304.49 240.74"/><polygon class="cls-3" points="304.49 243.98 305.88 245.37 307.27 243.98 304.49 240.74 307.27 240.74 304.49 243.98"/><polygon class="cls-3" points="332.77 215.74 336.01 212.96 322.57 193.98 319.33 196.76 332.77 215.74"/><polygon class="cls-3" points="336.01 216.21 337.41 214.82 336.01 212.96 332.77 215.74 333.23 212.96 336.01 216.21"/><rect class="cls-2" x="319.33" y="162.96" width="4.17" height="32.41"/><polygon class="cls-3" points="319.33 196.76 319.33 195.37 323.5 195.37 322.57 193.98 319.33 196.76"/><rect class="cls-2" x="321.18" y="161.11" width="30.13" height="4.17"/><polygon class="cls-3" points="319.33 162.96 319.33 161.11 321.18 161.11 321.18 165.28 323.5 162.96 319.33 162.96"/><rect class="cls-2" x="349.46" y="162.96" width="4.17" height="30.56"/><polygon class="cls-3" points="351.31 161.11 353.63 161.11 353.63 162.96 349.46 162.96 351.31 165.28 351.31 161.11"/><polygon class="cls-3" points="352.7 194.91 343.89 206.02 335.09 216.67 324.43 227.32 321.65 224.07 331.84 213.89 340.65 203.24 349.46 192.13 352.7 194.91"/><polygon class="cls-3" points="353.63 193.52 353.63 193.98 352.7 194.91 349.46 192.13 349.46 193.52 353.63 193.52"/><polygon class="cls-3" points="324.43 227.32 310.52 240.74 293.83 257.41 274.36 277.32 271.58 274.08 291.05 254.17 307.74 237.5 321.65 224.07 324.43 227.32"/><path class="cls-3" d="M515.74,354.31,513,351.07Z" transform="translate(-191.31 -126.99)"/><polygon class="cls-3" points="274.36 274.08 271.58 277.32 303.1 306.95 305.88 303.71 274.36 274.08"/><polygon class="cls-3" points="271.58 274.08 269.73 275.93 271.58 277.32 274.36 274.08 274.36 277.32 271.58 274.08"/><polygon class="cls-3" points="303.1 306.95 304.49 308.34 305.88 306.95 303.1 303.71 305.88 303.71 303.1 306.95"/><polygon class="cls-5" points="323.04 350 304.96 367.6 274.36 398.15 271.58 401.39 268.8 404.63 263.7 411.11 259.53 417.59 255.82 424.08 249.33 437.04 245.62 443.99 241.91 450.93 234.96 464.82 228.47 477.32 225.23 483.8 221.52 489.82 217.81 495.84 213.64 501.39 209 507.41 204.37 512.97 199.73 518.06 195.1 522.69 190.46 526.86 186.29 530.56 182.12 533.8 177.95 537.04 170.99 542.13 165.89 545.37 160.79 548.15 162.65 609.26 164.97 608.34 167.28 606.95 169.6 605.56 171.92 604.17 177.02 600.93 182.58 597.23 188.14 592.6 194.17 587.97 200.2 582.41 206.22 576.86 209 574.08 211.78 570.84 216.88 564.82 219.2 561.58 221.52 558.34 225.69 551.39 229.4 544.45 232.65 537.5 239.6 523.15 246.55 507.88 250.26 500 254.89 492.13 259.53 483.8 265.09 475.93 271.12 467.6 274.83 463.43 278.54 459.26 284.1 453.71 295.22 443.06 328.13 411.11 406.48 337.5 374.03 306.95 323.04 350"/><polygon class="cls-3" points="324.43 351.39 275.75 400 272.97 396.76 321.65 348.15 324.43 351.39"/><polygon class="cls-3" points="275.75 399.54 265.09 412.5 257.68 424.54 243.77 451.85 240.06 450 253.97 422.69 261.85 409.73 272.51 396.76 275.75 399.54"/><polygon class="cls-3" points="272.97 396.76 272.51 396.76 275.75 399.54 275.75 400 272.97 396.76"/><polygon class="cls-3" points="243.77 451.85 229.86 478.24 223.37 490.75 215.03 502.78 211.78 500 219.66 488.89 226.15 476.39 240.06 450 243.77 451.85"/><path class="cls-3" d="M435.08,578.85,431.37,577Z" transform="translate(-191.31 -126.99)"/><polygon class="cls-3" points="215.03 502.78 205.76 514.36 196.49 524.08 187.68 532.41 179.34 538.89 167.28 547.23 161.72 550 159.4 546.76 164.5 543.99 176.56 535.65 184.9 529.17 193.71 520.84 202.51 511.58 211.78 500 215.03 502.78"/><path class="cls-3" d="M406.34,629.77,403.1,627Z" transform="translate(-191.31 -126.99)"/><polygon class="cls-3" points="162.65 548.15 158.48 548.15 160.33 609.26 164.5 609.26 162.65 548.15"/><polygon class="cls-3" points="159.4 546.76 158.48 547.23 158.48 548.15 162.65 548.15 161.72 550 159.4 546.76"/><polygon class="cls-3" points="161.72 607.41 170.99 602.32 181.19 595.37 192.78 586.58 204.83 575.47 207.61 578.71 195.56 589.82 183.97 598.62 172.85 606.02 163.57 611.12 161.72 607.41"/><polygon class="cls-3" points="160.33 609.26 160.33 612.97 163.57 611.12 161.72 607.41 164.5 609.26 160.33 609.26"/><polygon class="cls-3" points="204.83 575.47 210.39 569.45 215.03 562.97 223.84 550 230.79 536.58 237.28 522.23 244.7 506.95 252.58 490.75 263.24 474.54 269.73 466.21 277.14 457.87 279.93 461.12 272.51 469.45 266.48 477.32 255.82 493.52 248.4 508.8 240.99 524.08 234.5 538.43 227.08 552.78 218.27 565.74 213.18 572.69 207.61 578.71 204.83 575.47"/><path class="cls-3" d="M398.93,705.7l-2.78-3.24Z" transform="translate(-191.31 -126.99)"/><polygon class="cls-3" points="277.14 457.87 326.74 409.73 405.08 336.11 407.87 339.35 329.52 412.96 279.93 461.12 277.14 457.87"/><path class="cls-3" d="M468.46,584.87l2.78,3.24Z" transform="translate(-191.31 -126.99)"/><polygon class="cls-3" points="405.08 339.35 407.87 336.11 375.42 305.56 372.64 308.8 405.08 339.35"/><polygon class="cls-3" points="407.87 339.35 409.72 337.5 407.87 336.11 405.08 339.35 405.08 336.11 407.87 339.35"/><polygon class="cls-3" points="375.42 308.8 372.64 305.56 321.65 348.15 324.43 351.39 375.42 308.8"/><polygon class="cls-3" points="375.42 305.56 374.03 304.17 372.64 305.56 375.42 308.8 372.64 308.8 375.42 305.56"/><path class="cls-3" d="M513,475.14l2.78,3.24Z" transform="translate(-191.31 -126.99)"/><polygon class="cls-5" points="337.87 274.08 346.21 283.8 348.53 286.11 350.85 288.43 357.34 294.45 374.03 308.8 382.83 316.67 387 320.84 391.64 324.54 399.52 332.87 402.77 337.04 406.01 341.21 412.04 349.54 418.53 359.73 425.48 370.37 431.97 381.02 444.49 402.32 454.68 419.91 463.95 434.72 466.27 438.43 469.05 441.67 473.69 449.08 478.79 455.56 483.89 461.58 488.52 466.67 490.84 468.52 493.16 470.37 497.33 473.62 501.97 476.39 506.14 478.71 509.85 481.02 515.41 483.8 517.26 484.73 517.26 415.74 514.94 415.74 512.16 414.82 508.92 413.89 504.75 412.04 501.97 411.11 499.65 409.73 494.55 406.02 491.77 404.17 488.99 401.86 483.42 396.3 477.86 390.74 472.76 384.73 467.2 378.71 462.1 372.23 457.46 365.28 455.15 362.04 452.83 358.34 448.66 350.93 440.31 335.19 431.97 318.98 424.09 303.71 418.06 292.59 416.67 290.28 414.82 287.5 409.72 281.48 403.23 275 395.81 268.06 387.93 261.11 380.52 254.63 373.56 249.08 367.54 244.91 337.87 274.08"/><polygon class="cls-3" points="339.26 272.69 336.01 275.46 344.36 285.19 347.6 282.41 339.26 272.69"/><polygon class="cls-3" points="347.6 282.41 358.73 293.06 375.42 306.95 392.57 323.15 407.4 339.35 404.16 342.13 389.79 326.39 372.64 310.19 355.95 296.3 344.82 285.65 347.6 282.41"/><polygon class="cls-3" points="344.36 285.19 344.82 285.65 347.6 282.41 344.36 285.19"/><polygon class="cls-3" points="407.4 339.35 420.38 358.34 433.82 380.1 456.54 418.99 452.83 420.84 430.12 381.95 416.67 360.19 404.16 342.13 407.4 339.35"/><path class="cls-3" d="M598.72,466.35l-3.25,2.77Z" transform="translate(-191.31 -126.99)"/><polygon class="cls-3" points="456.54 418.99 465.81 433.34 475.08 447.69 485.28 460.19 489.91 465.28 494.55 468.98 491.77 472.23 487.13 468.52 482.03 462.97 471.83 450.47 462.1 435.19 452.83 420.84 456.54 418.99"/><path class="cls-3" d="M644.14,547.83l3.71-1.85Z" transform="translate(-191.31 -126.99)"/><polygon class="cls-3" points="494.55 468.98 502.89 474.54 510.77 478.71 518.19 482.87 516.34 486.58 508.92 482.41 501.04 478.24 491.77 472.23 494.55 468.98"/><path class="cls-3" d="M683.08,599.22l2.78-3.24Z" transform="translate(-191.31 -126.99)"/><rect class="cls-2" x="515.41" y="415.74" width="4.17" height="68.98"/><polygon class="cls-3" points="516.34 486.58 519.58 487.97 519.58 484.73 515.41 484.73 518.19 482.87 516.34 486.58"/><polygon class="cls-3" points="516.8 417.59 514.02 417.13 507.99 415.74 498.26 411.58 487.6 403.71 490.38 400.46 500.57 408.34 509.85 412.04 515.41 413.43 517.73 413.89 516.8 417.59"/><polygon class="cls-3" points="519.58 415.74 519.58 414.36 517.73 413.89 516.8 417.59 515.41 415.74 519.58 415.74"/><polygon class="cls-3" points="487.6 403.71 476.47 392.59 465.81 380.1 455.61 366.67 446.8 352.32 450.05 350 458.85 363.89 468.59 377.32 479.25 389.36 490.38 400.46 487.6 403.71"/><path class="cls-3" d="M678.91,530.7l2.78-3.24Z" transform="translate(-191.31 -126.99)"/><polygon class="cls-3" points="446.8 352.32 430.12 319.91 416.21 293.98 419.45 291.67 433.36 317.59 450.05 350 446.8 352.32"/><path class="cls-3" d="M638.12,479.31l3.24-2.32Z" transform="translate(-191.31 -126.99)"/><polygon class="cls-3" points="416.21 293.98 408.33 283.33 394.42 269.45 379.13 256.02 365.68 246.76 368.46 243.52 381.91 253.24 397.2 266.21 411.11 280.1 419.45 291.21 416.21 293.98"/><polygon class="cls-3" points="419.45 291.67 419.45 291.21 416.21 293.98 419.45 291.67"/><polygon class="cls-3" points="368.46 246.76 365.68 243.52 336.48 272.69 339.26 275.93 368.46 246.76"/><polygon class="cls-3" points="368.46 243.52 367.07 242.13 365.68 243.52 368.46 246.76 365.68 246.76 368.46 243.52"/><polygon class="cls-3" points="336.48 272.69 335.09 274.08 336.01 275.46 339.26 272.69 339.26 275.93 336.48 272.69"/><polygon class="cls-5" points="374.03 499.54 370.32 496.76 364.75 492.13 357.34 485.19 348.07 476.86 301.25 432.87 236.35 371.3 218.74 414.36 296.15 488.43 326.28 517.13 336.01 526.39 341.11 531.95 374.03 499.54"/><polygon class="cls-3" points="372.17 500.93 346.68 478.24 299.86 434.72 234.96 373.15 237.74 369.91 302.64 431.49 349.46 475 374.95 498.15 372.17 500.93"/><polygon class="cls-3" points="238.21 372.23 234.5 370.37 216.88 413.43 220.59 415.28 238.21 372.23"/><polygon class="cls-3" points="237.74 369.91 235.43 368.06 234.5 370.37 238.21 372.23 234.96 373.15 237.74 369.91"/><polygon class="cls-3" points="220.13 412.96 297.54 487.04 342.5 530.56 339.72 533.8 294.76 490.28 217.35 416.21 220.13 412.96"/><polygon class="cls-3" points="216.88 413.43 215.96 415.28 217.35 416.21 220.13 412.96 220.59 415.28 216.88 413.43"/><polygon class="cls-3" points="339.72 530.56 342.5 533.8 374.95 501.39 372.17 498.15 339.72 530.56"/><polygon class="cls-3" points="339.72 533.8 341.11 535.19 342.5 533.8 339.72 530.56 342.5 530.56 339.72 533.8"/><polygon class="cls-3" points="374.95 501.39 376.81 499.54 374.95 498.15 372.17 500.93 372.17 498.15 374.95 501.39"/><polygon class="cls-5" points="334.63 525 346.68 537.5 365.22 555.56 384.69 575.47 393.96 584.73 401.38 593.06 406.94 599.08 412.04 605.56 416.67 611.58 420.84 617.6 424.55 623.62 428.26 629.17 431.5 635.19 434.75 640.28 439.85 650.93 444.95 660.19 449.12 668.99 451.44 673.15 453.29 676.86 457.93 683.8 463.03 690.75 468.13 697.23 473.23 703.25 478.79 708.8 483.89 713.89 488.52 718.52 493.16 721.76 497.33 725 501.97 727.78 506.14 730.56 509.85 732.41 515.41 735.19 517.26 736.12 518.19 674.54 514.94 673.15 511.24 671.76 506.6 669.45 501.5 666.21 495.94 662.5 490.38 657.88 488.06 655.56 485.28 652.78 480.18 647.23 475.08 642.13 469.98 636.58 465.35 631.02 460.71 625 456.54 618.52 454.68 615.28 452.37 611.12 450.51 606.95 448.66 602.78 441.7 586.12 437.53 577.78 433.36 569.45 429.19 561.58 425.48 554.63 421.77 548.62 419.92 546.3 418.06 543.99 413.43 538.43 408.79 531.95 403.69 525.47 398.13 518.52 394.88 515.28 391.64 512.04 387.93 508.34 383.76 505.1 379.59 501.86 374.95 498.61 369.85 495.37 364.29 492.6 334.63 525"/><polygon class="cls-3" points="336.01 523.61 348.07 536.11 366.15 554.17 386.08 574.08 402.77 591.21 399.52 593.99 383.3 577.32 363.36 557.41 345.29 539.36 333.23 526.86 336.01 523.61"/><polygon class="cls-3" points="402.77 591.21 413.43 604.17 422.24 616.21 430.12 628.24 436.14 639.36 446.34 659.26 455.15 675.93 451.44 677.78 442.63 661.12 432.43 641.21 426.41 630.1 418.99 618.99 410.18 606.95 399.52 593.99 402.77 591.21"/><path class="cls-3" d="M594.08,718.2,590.84,721Z" transform="translate(-191.31 -126.99)"/><polygon class="cls-3" points="454.68 675.47 464.42 688.89 474.62 701.86 484.81 712.5 494.55 720.38 491.77 723.62 482.03 715.75 471.37 704.63 461.17 691.67 451.44 678.25 454.68 675.47"/><polygon class="cls-3" points="451.44 677.78 451.44 678.25 454.68 675.47 455.15 675.93 451.44 677.78"/><polygon class="cls-3" points="494.55 720.38 502.89 725.93 510.77 730.56 518.19 734.26 516.34 737.97 508.92 734.26 501.04 729.63 491.77 723.62 494.55 720.38"/><path class="cls-3" d="M683.08,850.61l2.78-3.24Z" transform="translate(-191.31 -126.99)"/><polygon class="cls-3" points="514.94 736.12 519.12 736.12 520.04 674.54 515.87 674.54 514.94 736.12"/><polygon class="cls-3" points="517.26 676.39 505.21 670.84 494.55 664.36 488.99 659.73 483.89 654.63 486.67 651.39 491.77 656.49 497.33 661.12 507.53 667.6 519.12 672.69 517.26 676.39"/><polygon class="cls-3" points="520.04 674.54 520.04 673.15 519.12 672.69 517.26 676.39 515.87 674.54 520.04 674.54"/><polygon class="cls-3" points="483.89 654.63 473.69 643.52 463.95 632.41 458.85 626.39 454.68 619.91 450.51 612.04 446.8 603.71 450.51 601.86 454.22 610.19 457.93 617.6 462.1 623.62 466.74 629.63 476.47 640.28 486.67 651.39 483.89 654.63"/><path class="cls-3" d="M675.2,781.63l2.78-3.25Z" transform="translate(-191.31 -126.99)"/><polygon class="cls-3" points="446.8 603.71 431.5 570.37 423.63 556.02 416.21 545.37 419.45 542.6 426.87 553.71 435.21 568.52 450.51 601.86 446.8 603.71"/><path class="cls-3" d="M641.83,728.85l-3.71,1.85Z" transform="translate(-191.31 -126.99)"/><polygon class="cls-3" points="416.21 545.37 406.94 533.34 396.74 519.91 390.25 513.43 382.37 506.95 373.56 500.47 362.9 493.98 365.22 490.75 375.88 497.23 385.15 503.71 393.03 510.19 399.52 517.13 410.18 530.56 419.45 542.6 416.21 545.37"/><path class="cls-3" d="M610.77,669.59l-3.25,2.78Z" transform="translate(-191.31 -126.99)"/><polygon class="cls-3" points="365.68 493.52 362.44 490.75 332.77 523.61 336.01 526.39 365.68 493.52"/><polygon class="cls-3" points="365.22 490.75 363.36 489.82 362.44 490.75 365.68 493.52 362.9 493.98 365.22 490.75"/><polygon class="cls-3" points="332.77 523.61 331.38 525 333.23 526.86 336.01 523.61 336.01 526.39 332.77 523.61"/><polygon class="cls-5" points="249.33 312.5 246.09 319.45 241.91 326.85 238.21 333.8 234.96 340.74 229.4 354.63 228.01 357.41 226.15 360.65 225.23 362.5 224.76 363.89 222.91 366.67 220.59 369.45 218.74 372.23 216.42 375 213.64 377.32 199.27 389.36 181.65 403.24 160.79 419.91 162.65 485.19 167.28 482.87 172.38 480.1 178.41 476.39 184.44 471.76 187.22 468.98 190.46 466.21 193.71 463.43 196.95 460.19 200.2 456.49 203.44 452.78 206.69 448.61 209.93 443.99 213.64 438.43 215.03 435.65 216.88 432.41 219.66 426.39 222.45 420.37 227.54 407.87 233.11 394.45 236.35 387.96 239.6 380.56 243.31 373.61 247.94 366.21 253.04 358.8 259.07 351.39 265.56 343.52 269.26 339.35 273.44 335.19 273.9 335.19 273.9 334.72 273.44 333.34 271.12 330.56 269.26 328.71 267.41 326.85 262.77 322.69 253.5 315.74 249.33 312.5"/><polygon class="cls-3" points="251.19 313.43 243.77 327.78 240.06 325.93 247.48 311.58 251.19 313.43"/><polygon class="cls-3" points="243.77 327.78 236.82 341.67 231.25 355.1 224.76 367.6 220.13 373.61 215.03 379.17 212.25 375.93 216.88 370.84 221.06 365.74 227.54 353.24 233.11 339.82 240.06 325.93 243.77 327.78"/><path class="cls-3" d="M431.37,452.92l3.71,1.85Z" transform="translate(-191.31 -126.99)"/><polygon class="cls-3" points="215.03 379.17 183.04 405.09 162.19 421.76 159.4 418.52 180.26 401.86 212.25 375.93 215.03 379.17"/><path class="cls-3" d="M406.34,506.16l-2.78-3.24Z" transform="translate(-191.31 -126.99)"/><polygon class="cls-3" points="162.65 419.91 158.48 419.91 160.33 485.19 164.5 485.19 162.65 419.91"/><polygon class="cls-3" points="159.4 418.52 158.48 419.45 158.48 419.91 162.65 419.91 162.19 421.76 159.4 418.52"/><polygon class="cls-3" points="161.72 483.34 171.46 478.24 182.58 470.37 195.56 458.34 202.05 451.39 208.08 442.6 211.32 445.37 204.83 454.63 198.34 461.58 185.36 473.62 173.31 481.95 163.57 487.04 161.72 483.34"/><polygon class="cls-3" points="160.33 485.19 160.33 488.89 163.57 487.04 161.72 483.34 164.5 485.19 160.33 485.19"/><polygon class="cls-3" points="208.08 442.6 215.03 431.49 220.59 419.45 231.25 393.52 237.74 379.63 246.09 364.82 257.21 350 264.17 342.13 272.05 333.8 274.83 337.04 266.95 345.37 260.46 352.78 249.33 367.6 240.99 381.95 234.96 395.37 224.3 421.3 218.27 433.8 211.32 445.37 208.08 442.6"/><path class="cls-3" d="M402.64,572.37l-3.25-2.78Z" transform="translate(-191.31 -126.99)"/><polygon class="cls-3" points="271.58 335.19 271.58 334.26 269.73 332.41 261.38 324.08 247.94 314.35 250.72 311.11 264.17 321.3 272.51 329.17 275.29 332.41 275.29 335.19 271.58 335.19"/><polygon class="cls-3" points="274.83 337.04 275.29 336.58 275.29 335.19 271.58 335.19 272.05 333.8 274.83 337.04"/><polygon class="cls-3" points="250.72 311.11 248.4 309.26 247.48 311.58 251.19 313.43 247.94 314.35 250.72 311.11"/><polygon class="cls-5" points="402.3 400.46 365.22 436.58 338.33 462.5 323.04 477.32 317.47 482.41 312.37 487.97 306.81 493.98 301.71 500 290.59 512.97 284.56 519.45 278.54 525.93 272.51 531.95 266.95 538.43 261.38 544.45 256.75 550.93 252.11 556.95 248.4 563.89 244.7 570.84 241.91 578.24 239.13 587.04 235.89 594.91 233.11 601.39 230.33 606.95 227.08 612.5 223.37 617.6 218.74 623.15 213.64 629.17 202.98 640.28 198.34 644.91 193.24 649.54 184.44 657.88 176.56 664.36 170.06 669.45 165.43 672.69 160.79 675.47 162.65 737.04 167.28 734.73 172.38 731.95 174.7 730.56 177.48 728.71 183.51 725 190 720.38 196.95 714.82 203.9 708.34 211.78 700.47 214.1 697.69 216.88 694.91 219.2 691.67 221.06 688.89 223.37 685.19 225.23 681.95 229.4 675 233.11 667.6 236.82 659.73 243.77 643.99 247.48 635.65 251.19 627.78 254.89 619.91 259.07 612.5 263.24 605.56 267.87 598.62 270.65 595.37 272.97 592.13 275.75 589.36 278.54 586.58 430.12 438.89 402.3 400.46"/><polygon class="cls-3" points="403.69 402.32 324.43 479.17 321.65 475.93 400.91 399.08 403.69 402.32"/><polygon class="cls-3" points="324.43 479.17 313.76 489.36 303.1 501.39 279.93 527.32 276.68 524.54 299.86 498.61 310.52 486.58 321.65 475.93 324.43 479.17"/><path class="cls-3" d="M513,602.92l2.78,3.24Z" transform="translate(-191.31 -126.99)"/><polygon class="cls-3" points="279.93 527.32 268.34 539.36 258.14 551.86 250.26 564.82 243.77 579.17 240.06 577.32 246.55 562.97 254.89 549.08 265.09 536.58 276.68 524.54 279.93 527.32"/><path class="cls-3" d="M471.24,654.31,468,651.53Z" transform="translate(-191.31 -126.99)"/><polygon class="cls-3" points="243.77 579.17 237.74 595.84 234.96 602.32 232.18 607.88 224.76 618.99 215.03 630.1 211.78 627.32 221.52 616.21 228.47 606.02 231.25 600.47 234.04 593.99 240.06 577.32 243.77 579.17"/><path class="cls-3" d="M431.37,704.31l3.71,1.85Z" transform="translate(-191.31 -126.99)"/><polygon class="cls-3" points="215.03 630.1 204.37 641.67 194.63 651.39 177.95 666.21 166.36 674.54 162.19 677.32 159.4 674.08 163.57 671.3 175.16 662.97 191.85 648.15 201.59 638.43 211.78 627.32 215.03 630.1"/><path class="cls-3" d="M406.34,757.09l-3.24-2.78Z" transform="translate(-191.31 -126.99)"/><polygon class="cls-3" points="162.65 675.47 158.48 675.47 160.33 736.58 164.5 736.58 162.65 675.47"/><polygon class="cls-3" points="159.4 674.08 158.48 674.54 158.48 675.47 162.65 675.47 162.19 677.32 159.4 674.08"/><polygon class="cls-3" points="161.72 734.73 170.99 730.1 182.12 723.62 195.1 713.43 210.39 699.08 213.18 702.32 197.88 716.67 184.9 726.86 172.85 733.8 163.57 738.43 161.72 734.73"/><polygon class="cls-3" points="210.39 699.08 214.57 693.52 219.2 687.04 227.54 674.08 234.96 658.8 241.91 642.6 249.33 626.86 257.21 611.58 266.02 597.23 271.58 590.75 277.14 585.19 279.93 588.43 274.36 593.99 269.26 600 260.46 613.89 253.04 628.71 245.62 644.45 238.67 660.65 230.79 676.39 222.45 689.82 217.81 696.3 213.18 702.32 210.39 699.08"/><path class="cls-3" d="M404.49,829.31l-2.78-3.24Z" transform="translate(-191.31 -126.99)"/><polygon class="cls-3" points="277.14 585.19 428.72 437.5 431.5 440.74 279.93 588.43 277.14 585.19"/><path class="cls-3" d="M468.46,712.18l2.78,3.24Z" transform="translate(-191.31 -126.99)"/><polygon class="cls-3" points="428.26 440.28 431.5 437.5 403.69 399.08 400.45 401.86 428.26 440.28"/><polygon class="cls-3" points="431.5 440.74 432.9 439.35 431.5 437.5 428.26 440.28 428.72 437.5 431.5 440.74"/><polygon class="cls-3" points="403.69 399.08 402.77 397.69 400.91 399.08 403.69 402.32 400.45 401.86 403.69 399.08"/><polygon class="cls-5" points="430.12 314.35 450.05 295.37 450.05 68.52 225.23 68.52 225.23 289.35 304.96 367.13 306.81 365.74 311.45 361.58 314.23 358.8 317.47 356.02 320.25 352.78 323.04 350 325.82 346.76 328.13 344.45 330.45 342.6 332.31 341.21 334.16 339.82 335.55 339.35 336.94 338.43 257.68 260.65 257.68 99.07 415.75 99.07 415.75 260.65 402.77 275.46 404.16 276.85 408.33 280.56 413.43 286.11 415.75 288.89 418.06 292.59 422.7 299.54 426.41 306.95 430.12 314.35"/><polygon class="cls-3" points="428.72 312.96 431.5 316.21 451.44 296.76 448.66 293.52 428.72 312.96"/><rect class="cls-2" x="448.19" y="68.52" width="4.17" height="226.39"/><polygon class="cls-3" points="451.44 296.76 452.37 296.3 452.37 294.91 448.19 294.91 448.66 293.52 451.44 296.76"/><rect class="cls-2" x="225.23" y="66.67" width="224.82" height="4.17"/><polygon class="cls-3" points="452.37 68.52 452.37 66.67 450.05 66.67 450.05 70.83 448.19 68.52 452.37 68.52"/><rect class="cls-2" x="223.37" y="68.52" width="4.17" height="220.37"/><polygon class="cls-3" points="225.23 66.67 223.37 66.67 223.37 68.52 227.54 68.52 225.23 70.83 225.23 66.67"/><polygon class="cls-3" points="226.62 287.5 306.35 365.74 303.57 368.98 223.84 290.74 226.62 287.5"/><polygon class="cls-3" points="223.37 288.89 223.37 290.74 223.84 290.74 226.62 287.5 227.54 288.89 223.37 288.89"/><polygon class="cls-3" points="303.57 365.74 310.06 360.19 321.65 348.15 324.43 351.39 312.84 363.43 306.35 368.98 303.57 365.74"/><polygon class="cls-3" points="303.57 368.98 304.96 370.37 306.35 368.98 303.57 365.74 306.35 365.74 303.57 368.98"/><polygon class="cls-3" points="321.65 348.15 326.74 343.06 330.92 339.35 335.55 336.58 337.41 340.28 333.7 342.6 329.52 346.3 324.43 351.39 321.65 348.15"/><path class="cls-3" d="M515.74,478.38,513,475.14Z" transform="translate(-191.31 -126.99)"/><polygon class="cls-3" points="335.09 340.28 337.87 337.04 259.07 259.26 256.29 262.5 335.09 340.28"/><polygon class="cls-3" points="337.41 340.28 339.72 338.89 337.87 337.04 335.09 340.28 335.55 336.58 337.41 340.28"/><rect class="cls-2" x="255.36" y="98.61" width="4.17" height="162.04"/><polygon class="cls-3" points="256.29 262.5 255.36 261.58 255.36 260.65 259.53 260.65 259.07 259.26 256.29 262.5"/><polygon class="cls-3" points="257.68 96.76 257.68 100.93 415.75 101.39 415.75 97.22 257.68 96.76"/><polygon class="cls-3" points="255.36 98.61 255.36 96.76 257.68 96.76 257.68 100.93 259.53 98.61 255.36 98.61"/><rect class="cls-2" x="413.89" y="99.07" width="4.17" height="161.58"/><polygon class="cls-3" points="415.75 97.22 418.06 97.22 418.06 99.07 413.89 99.07 415.75 101.39 415.75 97.22"/><polygon class="cls-3" points="417.14 262.04 413.89 259.26 400.91 274.08 404.16 276.85 417.14 262.04"/><polygon class="cls-3" points="418.06 260.65 418.06 261.11 417.14 262.04 413.89 259.26 413.89 260.65 418.06 260.65"/><polygon class="cls-3" points="404.16 274.08 409.72 279.17 414.82 284.26 419.45 291.21 416.21 293.98 411.57 287.04 406.94 282.41 401.38 277.32 404.16 274.08"/><polygon class="cls-3" points="400.91 274.08 399.52 275.46 401.38 277.32 404.16 274.08 404.16 276.85 400.91 274.08"/><polygon class="cls-3" points="419.92 291.67 431.97 313.43 428.26 315.28 416.21 293.52 419.92 291.67"/><polygon class="cls-3" points="419.45 291.21 419.92 291.67 416.21 293.52 416.21 293.98 419.45 291.21"/><polygon class="cls-3" points="428.26 315.28 429.65 318.06 431.5 316.21 428.72 312.96 431.97 313.43 428.26 315.28"/><polygon class="cls-5" points="418.06 416.67 425.48 430.1 430.12 438.89 514.94 356.02 515.87 1.85 160.33 1.85 160.33 357.87 195.56 391.21 197.41 390.28 202.05 387.5 207.61 382.87 210.86 380.56 213.64 377.32 218.74 371.3 223.37 365.28 227.54 359.73 192.78 325.46 192.78 32.41 478.32 32.41 478.32 325.46 402.3 400.46 404.16 402.32 408.79 406.48 411.57 408.8 414.35 411.58 416.67 414.36 418.06 416.67"/><polygon class="cls-3" points="419.92 415.74 431.97 437.97 428.26 439.82 416.21 417.59 419.92 415.74"/><polygon class="cls-3" points="428.72 437.5 513.55 354.63 516.34 357.87 431.5 440.74 428.72 437.5"/><polygon class="cls-3" points="428.26 439.82 429.65 442.6 431.5 440.74 428.72 437.5 431.97 437.97 428.26 439.82"/><polygon class="cls-3" points="512.63 356.02 516.8 356.02 517.26 1.85 513.09 1.85 512.63 356.02"/><polygon class="cls-3" points="516.34 357.87 516.8 357.41 516.8 356.02 512.63 356.02 513.55 354.63 516.34 357.87"/><rect class="cls-2" x="160.33" width="355.08" height="4.17"/><polygon class="cls-3" points="517.26 1.85 517.26 0 515.41 0 515.41 4.17 513.09 1.85 517.26 1.85"/><rect class="cls-2" x="158.48" y="1.85" width="4.17" height="356.02"/><polygon class="cls-3" points="160.33 0 158.48 0 158.48 1.85 162.65 1.85 160.33 4.17 160.33 0"/><polygon class="cls-3" points="161.72 356.48 158.94 359.73 194.17 393.06 196.95 389.82 161.72 356.48"/><polygon class="cls-3" points="158.48 357.87 158.48 359.73 158.94 359.73 161.72 356.48 162.65 357.87 158.48 357.87"/><polygon class="cls-3" points="194.63 389.36 200.66 386.11 206.22 381.48 212.25 375.93 215.03 379.17 209 384.73 203.44 389.36 196.49 393.06 194.63 389.36"/><polygon class="cls-3" points="194.17 393.06 195.1 393.98 196.49 393.06 194.63 389.36 196.95 389.82 194.17 393.06"/><polygon class="cls-3" points="211.78 375.93 225.69 358.34 228.94 361.11 215.03 378.71 211.78 375.93"/><polygon class="cls-3" points="215.03 379.17 215.03 378.71 211.78 375.93 212.25 375.93 215.03 379.17"/><polygon class="cls-3" points="226.15 361.58 191.39 327.32 194.17 324.08 228.94 358.34 226.15 361.58"/><polygon class="cls-3" points="228.94 361.11 230.33 359.73 228.94 358.34 226.15 361.58 225.69 358.34 228.94 361.11"/><rect class="cls-2" x="190.92" y="32.41" width="4.17" height="293.06"/><polygon class="cls-3" points="191.39 327.32 190.93 327.32 190.93 325.46 195.1 325.46 194.17 324.08 191.39 327.32"/><rect class="cls-2" x="192.78" y="30.56" width="285.54" height="4.17"/><polygon class="cls-3" points="190.93 32.41 190.93 30.55 192.78 30.55 192.78 34.72 195.1 32.41 190.93 32.41"/><rect class="cls-2" x="476.47" y="32.41" width="4.17" height="293.06"/><polygon class="cls-3" points="478.32 30.55 480.64 30.55 480.64 32.41 476.47 32.41 478.32 34.72 478.32 30.55"/><polygon class="cls-3" points="479.71 327.32 476.93 324.08 400.91 399.08 403.69 402.32 479.71 327.32"/><polygon class="cls-3" points="480.64 325.46 480.64 326.85 479.71 327.32 476.93 324.08 476.47 325.46 480.64 325.46"/><polygon class="cls-3" points="403.69 399.08 410.18 405.09 415.75 410.19 419.45 415.28 416.21 418.06 412.5 412.96 407.4 408.34 400.91 402.32 403.69 399.08"/><polygon class="cls-3" points="400.91 399.08 399.06 400.93 400.91 402.32 403.69 399.08 403.69 402.32 400.91 399.08"/><polygon class="cls-3" points="419.45 415.28 419.92 415.74 416.21 417.59 416.21 418.06 419.45 415.28"/><polygon class="cls-5" points="336.94 403.71 338.8 406.02 341.58 408.8 349 415.28 367.54 431.02 377.27 439.82 387 449.08 391.18 453.24 395.35 457.87 399.06 462.04 402.3 465.74 408.79 474.54 415.28 483.8 422.7 493.98 429.65 504.63 436.61 515.74 443.1 526.86 448.66 537.5 451.44 542.6 453.29 547.69 457 555.1 460.25 562.04 463.95 568.52 468.13 574.54 470.44 577.78 472.76 580.56 477.86 586.58 480.64 589.36 483.89 592.13 490.38 597.69 495.01 601.39 499.65 604.17 507.99 609.73 514.02 612.97 516.8 613.89 518.19 546.3 514.94 544.91 510.77 543.52 506.14 541.21 500.57 538.43 494.55 534.73 488.52 530.56 485.74 528.24 482.96 525.93 477.86 520.84 472.76 515.28 468.59 509.26 464.42 502.78 460.25 496.3 456.54 489.36 448.66 475 444.49 467.6 440.78 459.26 432.43 442.13 428.72 434.26 425.02 427.32 423.16 424.08 421.77 421.3 418.06 416.67 411.57 409.26 405.55 403.24 394.42 392.59 383.3 382.87 377.27 377.32 371.24 371.3 336.94 403.71"/><polygon class="cls-3" points="337.87 402.32 350.38 413.89 368.46 429.63 388.4 447.23 396.74 456.02 403.69 464.35 400.45 467.13 393.5 458.8 385.62 450.47 365.68 432.87 347.6 417.13 335.09 405.56 337.87 402.32"/><polygon class="cls-3" points="403.69 464.35 431.04 503.25 444.95 525.93 455.15 546.3 451.44 548.15 441.24 527.78 427.8 506.02 400.45 467.13 403.69 464.35"/><path class="cls-3" d="M595,591.35l-3.25,2.78Z" transform="translate(-191.31 -126.99)"/><polygon class="cls-3" points="455.15 546.3 462.1 560.65 469.98 573.62 474.15 579.17 479.25 585.19 491.77 596.3 488.99 599.54 476.47 588.43 470.91 581.95 466.27 575.47 458.39 562.5 451.44 548.15 455.15 546.3"/><path class="cls-3" d="M646.46,673.29l-3.71,1.85Z" transform="translate(-191.31 -126.99)"/><polygon class="cls-3" points="491.77 596.3 500.57 602.78 508.92 607.41 517.73 612.04 515.87 615.75 507.06 611.12 497.79 606.02 488.99 599.54 491.77 596.3"/><path class="cls-3" d="M680.3,726.53l2.78-3.24Z" transform="translate(-191.31 -126.99)"/><polygon class="cls-3" points="514.94 613.89 518.65 613.89 520.04 546.3 516.34 546.3 514.94 613.89"/><polygon class="cls-3" points="515.87 615.75 518.65 617.13 518.65 613.89 514.94 613.89 517.73 612.04 515.87 615.75"/><polygon class="cls-3" points="517.26 548.15 505.21 543.06 493.16 536.58 487.13 532.41 481.57 527.32 484.35 524.54 489.91 529.17 495.48 533.34 507.06 539.36 519.12 544.45 517.26 548.15"/><polygon class="cls-3" points="520.04 546.3 520.04 544.91 519.12 544.45 517.26 548.15 516.34 546.3 520.04 546.3"/><polygon class="cls-3" points="481.57 527.78 471.37 516.21 462.56 504.17 446.8 476.39 450.05 474.08 465.81 501.86 474.15 513.43 484.35 524.54 481.57 527.78"/><polygon class="cls-3" points="481.57 527.32 481.57 527.78 484.35 524.54 481.57 527.32"/><polygon class="cls-3" points="446.8 475.93 430.58 443.06 423.16 428.71 419.45 422.69 416.21 418.06 419.45 415.28 422.7 419.91 426.41 426.39 434.29 441.21 450.51 474.08 446.8 475.93"/><polygon class="cls-3" points="446.8 476.39 446.8 475.93 450.51 474.08 450.05 474.08 446.8 476.39"/><polygon class="cls-3" points="416.67 418.52 404.16 405.09 393.03 394.45 381.91 384.73 369.39 373.15 372.17 369.91 384.69 381.48 395.81 391.21 406.94 401.86 419.45 415.28 416.67 418.52"/><polygon class="cls-3" points="419.45 415.28 416.67 418.52 416.21 418.06 419.45 415.28"/><polygon class="cls-3" points="372.17 373.15 369.39 369.91 335.09 402.32 337.87 405.56 372.17 373.15"/><polygon class="cls-3" points="372.17 369.91 370.78 368.52 369.39 369.91 372.17 373.15 369.39 373.15 372.17 369.91"/><polygon class="cls-3" points="335.09 402.32 333.23 404.17 335.09 405.56 337.87 402.32 337.87 405.56 335.09 402.32"/><path class="cls-6" d="M822.63,1012.63V947.48h12.51c9.25,0,15.77.48,19.55,1.4a26.77,26.77,0,0,1,9.95,4.69,27.31,27.31,0,0,1,8.5,11,42.91,42.91,0,0,1,0,30.91,27,27,0,0,1-18.24,15.7q-5.45,1.39-17,1.4H822.63Zm7.84-7.29h4.93c8,0,13.56-.35,16.65-1.05a18.14,18.14,0,0,0,7.7-3.58,21,21,0,0,0,6.09-8.62,35.92,35.92,0,0,0,0-24.12,21.3,21.3,0,0,0-6.12-8.56,18.34,18.34,0,0,0-7.81-3.66q-4.74-1.1-16.54-1.1h-4.93ZM774,944.9l29.65,67.73h-8.41l-8.46-20H761.29l-8.44,20h-8.42ZM774,962l-10.36,24h20.74Zm-97.38,50.59V947.48h12.52c9.25,0,15.76.48,19.55,1.4a26.72,26.72,0,0,1,9.94,4.69,27.42,27.42,0,0,1,8.51,11,42.91,42.91,0,0,1,0,30.91,27.2,27.2,0,0,1-8.53,11,26.86,26.86,0,0,1-9.72,4.69q-5.45,1.39-17,1.4H676.59Zm7.84-7.29h4.94q12,0,16.64-1.05a18.08,18.08,0,0,0,7.7-3.58,20.85,20.85,0,0,0,6.09-8.62,35.92,35.92,0,0,0,0-24.12,21.2,21.2,0,0,0-6.12-8.56,18.3,18.3,0,0,0-7.8-3.66q-4.74-1.1-16.54-1.1h-4.94Zm-43.64,7.29V947.48h7.74v65.15Zm-35.52-36.18a22.23,22.23,0,0,1,9.6,7.2,17.87,17.87,0,0,1,3.22,10.63q0,9-5.71,14.49t-15.16,5.5a20.84,20.84,0,0,1-12.91-3.93,19.54,19.54,0,0,1-7-11.2l7-3.48q1.44,5.93,4.69,9a11.61,11.61,0,0,0,8.22,3,13.3,13.3,0,0,0,9.43-3.36,11.42,11.42,0,0,0,3.6-8.75,12,12,0,0,0-2.5-7.58,19.26,19.26,0,0,0-7.6-5.45l-7.91-3.39a22.43,22.43,0,0,1-9.68-7,16.64,16.64,0,0,1-3.18-10.23,14.58,14.58,0,0,1,5.16-11.48q5.15-4.53,13.17-4.54a20,20,0,0,1,10.16,2.49,16.88,16.88,0,0,1,6.7,7.35l-6.41,4.09a16.66,16.66,0,0,0-4.89-5.62,10.68,10.68,0,0,0-6.14-1.85,9.89,9.89,0,0,0-7.14,2.67,9.6,9.6,0,0,0-.64,12.8,17.74,17.74,0,0,0,6.63,4.5ZM528.06,954v21.8H534q9.09,0,12.17-2.34t3.07-8.16q0-6.27-3.16-8.79T534,954Zm-7.56,58.6V947.48h15.29a45.65,45.65,0,0,1,9.6.73,14.21,14.21,0,0,1,5.36,2.53,14.67,14.67,0,0,1,4.5,6.07,21.33,21.33,0,0,1,1.61,8.43q0,8-4.48,12.17t-13.11,4.16h-1.38l24.89,31.06h-9.84l-23.77-31.06h-1.11v31.06Zm-59.77,0V947.48h34.35v7.08H468.47v18.69h26.61v7.21H468.47v24.95h26.61v7.22Zm-46.56,2.54-27.54-67.69H395l19.14,49.84,19-49.84h8.37Zm-54.4-2.54V947.48h7.75v65.15Zm-83,0V944.9L324.45,997V947.48h7.38v67.69l-47.66-51.49v49Zm-78.2-65.15h7.84V988q0,9.88,4.21,14.5c2.79,3.09,7.2,4.64,13.18,4.64s10.39-1.55,13.18-4.64,4.21-7.91,4.21-14.5V947.48h7.88V988q0,13.23-6.3,19.79t-19,6.56q-12.65,0-18.93-6.56T198.59,988Z" transform="translate(-191.31 -126.99)"/><path class="cls-6" d="M849.89,1045.78l29.65,67.73h-8.42l-8.46-20H837.21l-8.45,20h-8.41Zm0,17.14-10.36,24h20.73Zm-68-8v21.8h5.91q9.09,0,12.17-2.34t3.07-8.16q0-6.26-3.16-8.79t-12.08-2.51Zm-7.56,58.6v-65.14h15.29a45,45,0,0,1,9.6.73,14,14,0,0,1,5.36,2.52,14.74,14.74,0,0,1,4.5,6.07,21.33,21.33,0,0,1,1.61,8.43q0,8-4.48,12.17t-13.11,4.16h-1.38l24.89,31.06h-9.84L783,1082.45h-1.11v31.06Zm-29.69,0v-65.14h7.75v65.14Zm-29.13-65.14h7.84v50.8q0,8.2-3.63,12.14c-2.42,2.63-6.14,3.93-11.15,3.93a16.29,16.29,0,0,1-7.23-1.58,19.2,19.2,0,0,1-6.07-4.87l5.12-5.12a17.91,17.91,0,0,0,4.45,3.57,9.05,9.05,0,0,0,4.26,1.06,5.22,5.22,0,0,0,5-2.63c1-1.74,1.44-5.19,1.44-10.31Zm-54.94-2.59,29.64,67.73h-8.41l-8.46-20H647.9l-8.44,20H631Zm0,17.14-10.36,24H671Zm-91.09-14.55h7.84v40.52q0,9.88,4.21,14.5c2.79,3.09,7.2,4.64,13.18,4.64s10.39-1.55,13.19-4.64,4.2-7.91,4.2-14.5v-40.52H620v40.52q0,13.24-6.3,19.79t-19,6.56q-12.65,0-18.92-6.56t-6.31-19.79Zm-44.27,31.5H552.1v2.18q0,15.39-8.72,24.29t-23.8,8.9a38.16,38.16,0,0,1-8.75-1,31.32,31.32,0,0,1-7.67-2.86,30.81,30.81,0,0,1-12.37-12.16,35.4,35.4,0,0,1-4.37-17.65,39.68,39.68,0,0,1,2.6-14.7,32.14,32.14,0,0,1,7.86-11.55,29.26,29.26,0,0,1,10.23-6.32,37.4,37.4,0,0,1,12.91-2.14,36.45,36.45,0,0,1,16.29,3.41,29,29,0,0,1,11.43,10.25l-6.5,5.21a23.83,23.83,0,0,0-8.76-8.87,24.34,24.34,0,0,0-12.2-3q-11.34,0-18.41,7.66t-7.08,20q0,11.67,7.19,19.14t18.3,7.47q9.79,0,16.31-5.94a22.29,22.29,0,0,0,7.23-15.46H525.23ZM420,1045.78l29.64,67.73h-8.41l-8.46-20H407.31l-8.44,20h-8.42Zm0,17.14-10.36,24h20.73Zm-68.33,50.59v-65.14h7.74v57.76H384v7.38Zm-80.54,0v-65.14h34.35v7.07H278.87v18.69h26.61v7.21H278.87v25h26.61v7.21Zm-72.26,0v-65.14h12.51q13.88,0,19.55,1.39a26.78,26.78,0,0,1,9.95,4.7,27.38,27.38,0,0,1,8.5,11,42.91,42.91,0,0,1,0,30.91,27.26,27.26,0,0,1-8.52,11,26.7,26.7,0,0,1-9.72,4.69q-5.44,1.4-17,1.4h-15.3Zm7.83-7.29h4.94q12,0,16.64-1a18.12,18.12,0,0,0,7.71-3.58,21.06,21.06,0,0,0,6.09-8.61,36.08,36.08,0,0,0,0-24.12,21.26,21.26,0,0,0-6.12-8.57,18.34,18.34,0,0,0-7.81-3.66q-4.74-1.1-16.54-1.09H206.7Z" transform="translate(-191.31 -126.99)"/><path class="cls-7" d="M859.16,1176.64l30.72,70.17h-8.72l-8.76-20.69H846l-8.75,20.69h-8.72Zm0,17.75-10.73,24.85h21.48Zm-50.8,52.42v-67.5h8v67.5Zm-28.88-67.5h8.12V1232q0,8.5-3.77,12.58t-11.55,4.07a17,17,0,0,1-7.49-1.63,20,20,0,0,1-6.29-5l5.3-5.31a18.65,18.65,0,0,0,4.61,3.7,9.4,9.4,0,0,0,4.42,1.1,5.41,5.41,0,0,0,5.15-2.72c1-1.81,1.5-5.38,1.5-10.69Zm-55.64-2.67,30.72,70.17h-8.72l-8.76-20.69H710.7L702,1246.81h-8.72Zm0,17.75-10.73,24.85h21.48Zm-69.13-8.29v22.58h6.12q9.42,0,12.6-2.42c2.13-1.61,3.18-4.43,3.18-8.45q0-6.49-3.27-9.12t-12.51-2.59Zm-7.84,60.71v-67.5h15.85a47.09,47.09,0,0,1,9.94.76,14.87,14.87,0,0,1,5.56,2.61,15.36,15.36,0,0,1,4.65,6.3,22.06,22.06,0,0,1,1.67,8.73q0,8.3-4.64,12.61t-13.58,4.31h-1.43l25.79,32.18h-10.2l-24.63-32.18h-1.14v32.18Zm-29.47,0v-67.5h8v67.5Zm-61,0v-67.5h7.93v30l28.35-30h9.59l-29,30.39,31.82,37.11H594.8l-30.43-36.34v36.34Zm-54.3,0v-67.5h35.6v7.34H510.17V1206h27.57v7.47H510.17v25.86h27.57v7.47Zm-57.32,0v-67.5h8v67.5Zm-29.54,0v-67.5h8v67.5Zm-61,0v-67.5h7.93v30l28.36-30h9.58l-28.95,30.39,31.82,37.11H392.68l-30.44-36.34v36.34Zm-29.46,0v-67.5h8v67.5Zm-73.37,0v-67.5h8v26h35.87v-26h8.16v67.5h-8.16v-33.88H259.5v33.88Zm-29.09-37.48a23,23,0,0,1,10,7.45,18.51,18.51,0,0,1,3.33,11q0,9.33-5.91,15t-15.71,5.7a21.53,21.53,0,0,1-13.37-4.08,20.16,20.16,0,0,1-7.28-11.6l7.28-3.6q1.48,6.13,4.86,9.29a12,12,0,0,0,8.51,3.16,13.77,13.77,0,0,0,9.77-3.48,11.81,11.81,0,0,0,3.73-9.06,12.38,12.38,0,0,0-2.59-7.85,19.79,19.79,0,0,0-7.87-5.65l-8.2-3.51c-4.48-1.88-7.84-4.28-10-7.24a17.16,17.16,0,0,1-3.31-10.59,15.14,15.14,0,0,1,5.35-11.9q5.34-4.7,13.65-4.71a20.56,20.56,0,0,1,10.52,2.59,17.32,17.32,0,0,1,6.94,7.61l-6.64,4.24a17.09,17.09,0,0,0-5.07-5.83,11.06,11.06,0,0,0-6.35-1.92,10.27,10.27,0,0,0-7.4,2.77,10,10,0,0,0-.66,13.27,18.35,18.35,0,0,0,6.86,4.66Z" transform="translate(-191.31 -126.99)"/><path class="cls-7" d="M858.89,1281.16l30.72,70.17h-8.72l-8.76-20.69H845.75L837,1351.33h-8.72Zm0,17.75-10.73,24.85h21.48Zm-71.07-8.29v22.58H794q9.42,0,12.6-2.42c2.13-1.61,3.18-4.43,3.18-8.45q0-6.49-3.27-9.12T794,1290.62ZM780,1351.33v-67.49h15.85a47.24,47.24,0,0,1,9.94.75,14.87,14.87,0,0,1,5.56,2.61,15.36,15.36,0,0,1,4.65,6.3,22.06,22.06,0,0,1,1.67,8.73q0,8.3-4.64,12.61t-13.58,4.31H798l25.79,32.18H813.6L789,1319.15h-1.15v32.18Zm-31.4,0v-67.49h8v67.49Zm-31.47,0v-67.49h8v67.49Zm-30.82-67.49h8.12v52.63q0,8.51-3.76,12.58c-2.5,2.72-6.36,4.07-11.55,4.07a16.94,16.94,0,0,1-7.49-1.63,20,20,0,0,1-6.3-5l5.31-5.31a18.47,18.47,0,0,0,4.61,3.7,9.37,9.37,0,0,0,4.42,1.1,5.42,5.42,0,0,0,5.15-2.72q1.49-2.71,1.49-10.69Zm-57.56-2.68,30.71,70.17h-8.72L642,1330.64H615.59l-8.74,20.69h-8.72Zm0,17.75L618,1323.76h21.48ZM507,1283.84h8.67l17.1,49.64,17.85-52.32,18,52.32,17.19-49.64h8.68L568.4,1354l-17.66-52.18L533.16,1354Zm-75.32,67.49v-67.49H467.3v7.33H439.73v19.36H467.3V1318H439.73v25.86H467.3v7.47Zm-56.23,0v-67.49h35.6v7.33H383.51v19.36h27.57V1318H383.51v25.86h27.57v7.47Zm-50.09,0v-67.49h8v59.84h25.5v7.65Zm-62.78-81.78a4.92,4.92,0,0,1,1.59-3.59,5.11,5.11,0,0,1,3.72-1.57,4.75,4.75,0,0,1,3.58,1.52,5,5,0,0,1,1.48,3.64,5.22,5.22,0,0,1-1.4,3.76,4.89,4.89,0,0,1-3.66,1.45,5.19,5.19,0,0,1-3.81-1.48A5,5,0,0,1,262.61,1269.55Zm16.83,0a5.26,5.26,0,0,1,5.16-5.16,5,5,0,0,1,3.66,1.52,4.92,4.92,0,0,1,1.55,3.64,5.06,5.06,0,0,1-5.21,5.21,5.06,5.06,0,0,1-5.16-5.21Zm-29.37,14.29h8.12v42q0,10.25,4.36,15t13.66,4.8q9.3,0,13.66-4.8t4.36-15v-42h8.16v42q0,13.71-6.53,20.51t-19.65,6.79q-13.09,0-19.61-6.79t-6.53-20.51Zm-46.86,29.91h4.06c6.87,0,11.51-.8,13.89-2.42s3.57-4.42,3.57-8.45c0-4.3-1.22-7.34-3.66-9.08s-7-2.63-13.8-2.63h-4.06Zm0,7.29v30.29h-7.84v-67.49h14.15a55.2,55.2,0,0,1,10.93.78,17.15,17.15,0,0,1,6.08,2.58,15.31,15.31,0,0,1,5.05,6.31,22.67,22.67,0,0,1,0,17.8,15.19,15.19,0,0,1-5.05,6.31,16.42,16.42,0,0,1-6.06,2.63,54.78,54.78,0,0,1-10.95.79h-6.31Z" transform="translate(-191.31 -126.99)"/><rect class="cls-8" y="1012.57" width="696.85" height="7.42"/></svg>